<?xml version="1.0" encoding="UTF-8" standalone="no"?>
<!DOCTYPE svg PUBLIC "-//W3C//DTD SVG 1.1//EN" "http://www.w3.org/Graphics/SVG/1.1/DTD/svg11.dtd">
<svg xmlns="http://www.w3.org/2000/svg" width="36" height="36" viewBox="0 0 36 36"><path d="M17.988,0.024c-9.926,0 -18.001,8.076 -18.001,18.002c0,9.925 8.075,18.001 18.001,18.001c9.926,0 18.002,-8.076 18.002,-18.001c0,-9.926 -8.075,-18.002 -18.002,-18.002Zm4.477,18.636l-2.928,0c0,4.679 0,10.438 0,10.438l-4.34,0c0,0 0,-5.703 0,-10.438l-2.063,0l0,-3.69l2.063,0l0,-2.386c0,-1.709 0.812,-4.38 4.379,-4.38l3.216,0.012l0,3.582c0,0 -1.954,0 -2.334,0c-0.38,0 -0.92,0.19 -0.92,1.005l0,2.168l3.307,0l-0.38,3.689Z" style="fill:#5f5145;fill-rule:nonzero;"/></svg>
