<?xml version="1.0" encoding="UTF-8" standalone="no"?>
<!DOCTYPE svg PUBLIC "-//W3C//DTD SVG 1.1//EN" "http://www.w3.org/Graphics/SVG/1.1/DTD/svg11.dtd">
<svg width="36" height="36" viewBox="0 0 36 36" version="1.1" xmlns="http://www.w3.org/2000/svg" xmlns:xlink="http://www.w3.org/1999/xlink" xml:space="preserve" xmlns:serif="http://www.serif.com/" style="fill-rule:evenodd;clip-rule:evenodd;stroke-linejoin:round;stroke-miterlimit:2;">
    <path d="M17.988,0.024C8.062,0.024 -0.013,8.1 -0.013,18.026C-0.013,27.951 8.062,36.027 17.988,36.027C27.914,36.027 35.99,27.951 35.99,18.026C35.99,8.1 27.915,0.024 17.988,0.024ZM25.009,8.574L22.995,8.574L22.995,10.691C19.904,6.399 13.552,7.773 11.778,12.008C10.633,14.755 10.691,17.501 11.892,20.248C13.151,23.11 16.757,24.312 19.618,23.51C20.534,23.339 21.449,22.881 22.079,22.309C22.422,22.023 22.766,21.736 22.995,21.45C22.937,22.538 22.88,23.625 22.709,24.655C22.48,25.971 21.907,27.116 20.648,27.745C17.901,29.176 14.639,28.089 13.438,25.285L11.549,25.285C11.663,27.116 12.636,28.318 14.181,29.062C16.013,29.977 17.959,30.092 19.904,29.748C22.422,29.348 24.082,27.917 24.654,25.399C24.883,24.483 24.94,23.568 24.998,22.652C25.049,17.501 24.986,12.752 25.009,8.574ZM22.709,18.761C22.365,19.791 21.736,20.592 20.934,21.164C20.763,21.279 19.79,21.965 18.359,22.023C18.302,22.028 18.016,22.034 17.73,22.023C17.718,22.028 17.712,22.028 17.695,22.028C15.635,21.914 14.09,20.712 13.403,18.709C12.831,17.049 12.831,15.333 13.231,13.673C13.861,11.212 15.635,9.724 17.867,9.667C17.918,9.661 17.924,9.661 17.924,9.661C19.069,9.547 19.984,10.062 20.328,10.176C21.53,10.806 22.445,12.008 22.846,13.667C23.246,15.384 23.304,17.101 22.731,18.761L22.709,18.761Z" style="fill:rgb(95,81,69);"/>
</svg>
