<?xml version="1.0" encoding="UTF-8" standalone="no"?>
<!DOCTYPE svg PUBLIC "-//W3C//DTD SVG 1.1//EN" "http://www.w3.org/Graphics/SVG/1.1/DTD/svg11.dtd">
<svg xmlns="http://www.w3.org/2000/svg" width="36" height="36" viewBox="0 0 36 36">
    <g transform="matrix(0.0494617,0,0,0.0494566,0.00142581,0)">
        <path d="M363.911,0C162.943,0 0.002,162.942 0.002,363.909C0.002,564.873 162.944,727.818 363.911,727.818C564.878,727.818 727.817,564.872 727.817,363.909C727.818,162.942 564.878,0 363.911,0ZM556.079,530.983L526.941,560.127C521.739,565.322 506.506,568.563 506.017,568.563C413.839,569.367 325.086,533.16 259.875,467.943C194.485,402.516 158.236,313.446 159.21,220.957C159.21,220.915 162.546,206.119 167.743,200.971L196.879,171.831C207.541,161.119 228.022,156.279 242.37,161.079L248.499,163.123C262.805,167.919 277.824,183.736 281.777,198.309L296.433,252.102C300.386,266.716 295.055,287.508 284.396,298.17L264.941,317.628C284.042,388.341 339.525,443.835 410.25,462.982L429.698,443.52C440.409,432.808 461.193,427.482 475.776,431.429L529.561,446.137C544.137,450.142 559.951,465.067 564.746,479.368L566.79,485.586C571.542,499.893 566.739,520.369 556.078,530.983Z" style="fill:rgb(95,81,69);fill-rule:nonzero;"/>
    </g>
</svg>
