<?xml version="1.0" standalone="no"?>
<!DOCTYPE svg PUBLIC "-//W3C//DTD SVG 20010904//EN"
 "http://www.w3.org/TR/2001/REC-SVG-20010904/DTD/svg10.dtd">
<svg version="1.0" xmlns="http://www.w3.org/2000/svg"
 width="1230.000000pt" height="1230.000000pt" viewBox="0 0 1230.000000 1230.000000"
 preserveAspectRatio="xMidYMid meet">
<metadata>
Created by potrace 1.14, written by Peter Selinger 2001-2017
</metadata>
<g transform="translate(0.000000,1230.000000) scale(0.100000,-0.100000)"
fill="#000000" stroke="none">
<path d="M5675 12265 c-1481 -124 -2810 -738 -3851 -1779 -897 -898 -1481
-2017 -1703 -3261 -123 -696 -123 -1444 0 -2140 263 -1478 1053 -2798 2234
-3735 794 -631 1727 -1050 2730 -1229 697 -124 1438 -123 2140 1 1562 275
2943 1141 3891 2439 541 740 911 1611 1072 2524 124 702 125 1443 1 2140 -263
1477 -1053 2798 -2234 3735 -958 761 -2092 1204 -3336 1305 -222 18 -727 18
-944 0z m890 -206 c666 -43 1354 -212 1965 -481 1891 -834 3215 -2587 3490
-4623 36 -264 51 -497 51 -800 0 -951 -202 -1806 -627 -2657 -822 -1645 -2391
-2825 -4208 -3164 -593 -110 -1275 -126 -1881 -44 -956 129 -1882 499 -2659
1062 -1322 959 -2190 2401 -2406 4003 -69 507 -69 1093 0 1600 73 540 226
1084 442 1575 892 2022 2827 3383 5018 3530 279 19 519 18 815 -1z"/>
<path d="M7202 8309 c-421 -32 -830 -215 -1051 -469 -108 -124 -189 -261 -235
-400 -45 -136 -57 -217 -63 -410 -4 -163 -2 -197 17 -289 72 -350 262 -555
680 -734 162 -70 303 -118 635 -216 499 -148 657 -207 793 -299 121 -83 173
-181 174 -326 1 -236 -157 -377 -474 -427 -116 -18 -425 -7 -559 20 -359 72
-781 254 -1027 443 -29 23 -54 39 -57 37 -2 -3 -85 -162 -184 -354 l-179 -350
77 -50 c599 -399 1452 -583 2149 -465 625 107 1021 445 1113 950 19 104 27
285 18 402 -31 420 -230 693 -652 893 -201 96 -335 141 -722 246 -430 116
-583 166 -708 231 -176 92 -247 199 -247 374 0 185 85 320 253 400 119 56 194
69 422 69 234 0 283 -8 531 -90 235 -78 411 -164 553 -271 34 -25 63 -45 65
-43 7 8 345 635 351 651 8 21 -55 63 -250 166 -487 255 -921 350 -1423 311z"/>
<path d="M4317 6998 c-5 -1353 -10 -1506 -52 -1713 -47 -230 -129 -378 -259
-469 -136 -95 -253 -121 -505 -113 -176 6 -249 17 -367 56 -82 27 -219 86
-271 117 l-42 24 -9 -32 c-5 -18 -46 -169 -92 -336 -96 -348 -100 -300 35
-375 240 -133 483 -188 836 -188 357 1 602 47 824 158 410 204 614 579 690
1268 31 284 35 485 35 1683 l0 1212 -409 0 -409 0 -5 -1292z"/>
</g>
</svg>
