<?xml version="1.0" encoding="UTF-8" standalone="no"?>
<!DOCTYPE svg PUBLIC "-//W3C//DTD SVG 1.1//EN" "http://www.w3.org/Graphics/SVG/1.1/DTD/svg11.dtd">
<svg xmlns="http://www.w3.org/2000/svg" width="36" height="36" viewBox="0 0 36 36"><path d="M33.589,9.19c-1.61,-2.826 -3.794,-5.063 -6.552,-6.713c-2.758,-1.649 -5.77,-2.473 -9.036,-2.473c-3.267,0 -6.279,0.824 -9.037,2.473c-2.758,1.65 -4.942,3.887 -6.552,6.713c-1.61,2.826 -2.414,5.912 -2.414,9.258c0,4.019 1.144,7.633 3.434,10.843c2.289,3.21 5.247,5.432 8.872,6.664c0.422,0.081 0.735,0.024 0.938,-0.168c0.203,-0.192 0.304,-0.432 0.304,-0.72c0,-0.048 -0.004,-0.48 -0.011,-1.297c-0.008,-0.816 -0.012,-1.529 -0.012,-2.137l-0.539,0.096c-0.344,0.064 -0.778,0.092 -1.301,0.084c-0.524,-0.008 -1.067,-0.064 -1.63,-0.168c-0.562,-0.104 -1.086,-0.344 -1.57,-0.72c-0.484,-0.376 -0.828,-0.869 -1.031,-1.477l-0.235,-0.553c-0.156,-0.368 -0.402,-0.776 -0.738,-1.224c-0.336,-0.449 -0.676,-0.753 -1.02,-0.913l-0.164,-0.12c-0.109,-0.08 -0.211,-0.177 -0.305,-0.289c-0.093,-0.112 -0.164,-0.224 -0.21,-0.336c-0.047,-0.112 -0.009,-0.204 0.117,-0.276c0.125,-0.073 0.351,-0.108 0.68,-0.108l0.468,0.072c0.313,0.064 0.699,0.256 1.161,0.576c0.46,0.32 0.839,0.737 1.136,1.249c0.36,0.656 0.793,1.157 1.301,1.501c0.508,0.344 1.02,0.516 1.536,0.516c0.515,0 0.961,-0.04 1.336,-0.12c0.375,-0.08 0.726,-0.2 1.055,-0.36c0.14,-1.073 0.523,-1.898 1.148,-2.474c-0.891,-0.096 -1.691,-0.24 -2.403,-0.432c-0.71,-0.193 -1.445,-0.505 -2.203,-0.937c-0.758,-0.432 -1.387,-0.969 -1.887,-1.609c-0.5,-0.641 -0.91,-1.481 -1.231,-2.522c-0.32,-1.041 -0.48,-2.241 -0.48,-3.602c0,-1.938 0.617,-3.587 1.852,-4.948c-0.578,-1.457 -0.524,-3.09 0.164,-4.899c0.453,-0.144 1.125,-0.036 2.016,0.324c0.891,0.361 1.543,0.669 1.957,0.925c0.415,0.256 0.747,0.473 0.997,0.648c1.453,-0.416 2.953,-0.624 4.5,-0.624c1.547,0 3.048,0.208 4.502,0.624l0.89,-0.576c0.61,-0.384 1.329,-0.736 2.157,-1.057c0.828,-0.32 1.461,-0.408 1.899,-0.264c0.703,1.81 0.766,3.443 0.187,4.899c1.235,1.361 1.852,3.011 1.852,4.948c0,1.361 -0.16,2.565 -0.48,3.614c-0.32,1.049 -0.734,1.889 -1.242,2.522c-0.508,0.633 -1.141,1.165 -1.899,1.597c-0.758,0.432 -1.493,0.744 -2.204,0.937c-0.711,0.192 -1.512,0.336 -2.403,0.433c0.813,0.72 1.219,1.857 1.219,3.41l0,5.067c0,0.287 0.098,0.528 0.293,0.72c0.196,0.191 0.504,0.248 0.926,0.168c3.626,-1.233 6.584,-3.454 8.873,-6.665c2.289,-3.21 3.434,-6.824 3.434,-10.843c-0.001,-3.345 -0.806,-6.431 -2.415,-9.257Z" style="fill:#5f5145;fill-rule:nonzero;"/></svg>
