<?xml version="1.0" encoding="UTF-8" standalone="no"?>
<!DOCTYPE svg PUBLIC "-//W3C//DTD SVG 1.1//EN" "http://www.w3.org/Graphics/SVG/1.1/DTD/svg11.dtd">
<svg xmlns="http://www.w3.org/2000/svg" width="36" height="36" viewBox="0 0 36 36">
<path d="M18,0.001c-9.939,0 -17.998,8.065 -17.998,18.012c0,9.946 8.059,18.011 17.998,18.011c9.939,0 17.998,-8.065 17.998,-18.011c0,-9.949 -8.059,-18.012 -17.998,-18.012Zm-4.499,26.736l-4.5,0l0,-15.76l4.5,0l0,15.76Zm-2.111,-16.726c-1.165,0 -2.108,-0.946 -2.108,-2.112c0,-1.166 0.945,-2.112 2.108,-2.112c1.166,0.003 2.111,0.948 2.111,2.112c0,1.166 -0.945,2.112 -2.111,2.112Zm17.859,16.726l-4.5,0l0,-9.744c0,-1.142 -0.326,-1.941 -1.728,-1.941c-2.324,0 -2.771,1.941 -2.771,1.941l0,9.744l-4.5,0l0,-15.76l4.5,0l0,1.506c0.643,-0.493 2.249,-1.504 4.499,-1.504c1.458,0 4.5,0.874 4.5,6.151l0,9.607Z" style="fill:#5f5145;fill-rule:nonzero;"/>
</svg>
